<svg width="412" height="441" viewBox="0 0 412 441" fill="none" xmlns="http://www.w3.org/2000/svg">
<path d="M82.5459 48.7121H182.962V89.2106H82.5459V48.7121Z" fill="#85C5DD"/>
<path d="M182.971 89.2198V57.9823H110.665C105.563 57.9823 100.671 60.1515 97.0636 64.0127C93.4562 67.874 91.4297 73.1109 91.4297 78.5715V89.2198H182.971Z" fill="#95CFE1"/>
<path d="M212.592 86.8862H52.9249C33.6028 86.8862 17.9392 103.652 17.9392 124.334V339.386C17.9392 360.068 33.6028 376.834 52.9249 376.834H212.592C231.914 376.834 247.578 360.068 247.578 339.386V124.334C247.578 103.652 231.914 86.8862 212.592 86.8862Z" fill="#C1EAFE"/>
<path d="M212.592 86.877H52.9247C51.6597 86.9397 50.3988 87.0777 49.1481 87.2905C45.645 93.2174 43.7821 100.085 43.7749 107.099V322.141C43.7749 332.073 47.4609 341.598 54.022 348.621C60.5831 355.644 69.4818 359.59 78.7606 359.59H238.411C239.675 359.53 240.936 359.395 242.187 359.185C245.698 353.261 247.57 346.393 247.586 339.377V124.334C247.587 119.415 246.683 114.544 244.925 109.999C243.166 105.454 240.589 101.324 237.339 97.8454C234.089 94.3669 230.231 91.6078 225.985 89.7258C221.739 87.8438 217.188 86.8758 212.592 86.877Z" fill="#D2F0FB"/>
<path d="M17.9392 162.04H247.578V315.545H17.9392V162.04Z" fill="#85C5DD"/>
<path d="M43.7493 162.04H247.578V315.545H43.7493V162.04Z" fill="#95CFE1"/>
<path d="M59.5168 6.89062H206V51.0549H59.5168V6.89062Z" fill="#C1EAFE"/>
<path d="M93.773 40.6179H206V6.89062H72.2632V17.5941C72.2632 23.7004 74.5294 29.5566 78.5633 33.8744C82.5971 38.1922 88.0683 40.6179 93.773 40.6179Z" fill="#D2F0FB"/>
<path d="M177.652 340.341L109.627 369.323C100.69 373.131 96.3295 383.972 99.8865 393.537L99.8897 393.546C103.447 403.111 113.575 407.779 122.511 403.972L190.536 374.99C199.473 371.182 203.834 360.342 200.277 350.776L200.274 350.767C196.717 341.202 186.589 336.534 177.652 340.341Z" fill="#F5E17B"/>
<path d="M177.675 340.342L109.626 369.338C108.11 369.991 106.686 370.866 105.395 371.938C103.625 376.436 103.582 381.499 105.275 386.031C106.121 388.304 107.377 390.377 108.972 392.13C110.567 393.884 112.469 395.284 114.569 396.25C116.669 397.217 118.927 397.731 121.213 397.764C123.499 397.797 125.768 397.347 127.892 396.441L195.923 367.5C197.44 366.853 198.865 365.981 200.155 364.909C201.925 360.408 201.968 355.341 200.275 350.806C198.572 346.213 195.235 342.531 190.998 340.569C186.76 338.607 181.969 338.525 177.675 340.342Z" fill="#F5E79A"/>
<path d="M177.675 340.342L143.668 354.83L156.543 389.476L190.55 374.988C194.842 373.16 198.281 369.583 200.108 365.042C201.936 360.501 202.004 355.369 200.297 350.774C198.589 346.18 195.247 342.5 191.004 340.543C186.762 338.587 181.967 338.514 177.675 340.342Z" fill="#E75457"/>
<path d="M177.675 340.342L143.668 354.83L154.826 384.965L195.923 367.5C197.44 366.853 198.865 365.981 200.155 364.909C201.483 361.522 201.846 357.791 201.2 354.184C200.553 350.577 198.926 347.255 196.522 344.634C194.118 342.014 191.044 340.212 187.686 339.455C184.329 338.698 180.837 339.019 177.649 340.379L177.675 340.342Z" fill="#F06963"/>
<path d="M277.714 396.817H204.498C194.88 396.817 187.082 405.163 187.082 415.459V415.468C187.082 425.763 194.88 434.109 204.498 434.109H277.714C287.332 434.109 295.129 425.763 295.129 415.468V415.459C295.129 405.163 287.332 396.817 277.714 396.817Z" fill="#F5E17B"/>
<path d="M277.714 396.817H204.498C202.863 396.817 201.236 397.064 199.665 397.552C196.469 401.032 194.68 405.719 194.687 410.599C194.686 413.047 195.136 415.472 196.01 417.735C196.885 419.998 198.168 422.054 199.785 423.786C201.402 425.518 203.322 426.892 205.436 427.829C207.55 428.767 209.815 429.249 212.103 429.249H285.31C286.945 429.251 288.572 429.004 290.142 428.514C293.343 425.033 295.135 420.343 295.129 415.459C295.127 410.516 293.291 405.775 290.026 402.28C286.76 398.785 282.332 396.82 277.714 396.817Z" fill="#F5E79A"/>
<path d="M277.714 396.817H241.106V434.109H277.714C282.267 434.001 286.6 431.989 289.784 428.504C292.968 425.019 294.751 420.338 294.751 415.463C294.751 410.589 292.968 405.908 289.784 402.423C286.6 398.938 282.267 396.926 277.714 396.817Z" fill="#E75457"/>
<path d="M277.714 396.817H241.106V429.249H285.31C286.945 429.25 288.572 429.003 290.143 428.514C292.545 425.893 294.171 422.572 294.816 418.966C295.461 415.36 295.097 411.63 293.77 408.244C292.442 404.859 290.21 401.968 287.354 399.936C284.498 397.903 281.144 396.818 277.714 396.817Z" fill="#F06963"/>
<path d="M362.234 434.109C379.811 434.109 394.061 418.857 394.061 400.042C394.061 381.227 379.811 365.975 362.234 365.975C344.656 365.975 330.407 381.227 330.407 400.042C330.407 418.857 344.656 434.109 362.234 434.109Z" fill="#E5AE4C"/>
<path d="M338.338 342.345C355.915 342.345 370.165 327.092 370.165 308.277C370.165 289.463 355.915 274.21 338.338 274.21C320.76 274.21 306.511 289.463 306.511 308.277C306.511 327.092 320.76 342.345 338.338 342.345Z" fill="#E5AE4C"/>
<path d="M386.138 377.551C382.038 372.56 376.663 368.961 370.675 367.198C364.688 365.435 358.349 365.584 352.44 367.629C351.332 368.426 350.274 369.301 349.273 370.247C343.775 375.421 340.112 382.465 338.899 390.192C337.687 397.919 339.001 405.858 342.619 412.67C346.237 419.481 351.938 424.75 358.761 427.587C365.585 430.425 373.113 430.658 380.078 428.248C381.183 427.445 382.241 426.57 383.246 425.629C389.586 419.664 393.452 411.248 393.994 402.231C394.537 393.215 391.711 384.337 386.138 377.551ZM369.942 304.648C369.496 300.2 368.237 295.889 366.235 291.962C364.233 288.035 361.528 284.569 358.275 281.761C355.021 278.953 351.283 276.859 347.273 275.598C343.263 274.337 339.06 273.934 334.904 274.412C332.721 274.664 330.566 275.153 328.476 275.873C322.112 280.472 317.516 287.377 315.533 295.317C313.551 303.257 314.316 311.696 317.688 319.079C321.059 326.463 326.81 332.294 333.881 335.497C340.952 338.7 348.866 339.06 356.165 336.511C360.95 333.041 364.76 328.241 367.187 322.627C369.615 317.013 370.567 310.798 369.942 304.648Z" fill="#E5B859"/>
<path d="M370.139 309.214C370.184 307.681 370.129 306.146 369.976 304.621C369.824 303.073 369.571 301.538 369.221 300.027L306.562 307.322C306.523 308.837 306.577 310.353 306.725 311.86C306.879 313.393 307.132 314.913 307.481 316.408L370.139 309.214Z" fill="#E58332"/>
<path d="M369.942 304.648C369.79 303.1 369.537 301.565 369.186 300.055L314.596 306.403C314.596 306.826 314.631 307.248 314.699 307.671C314.968 310.306 315.521 312.899 316.347 315.398L370.113 309.187C370.149 307.672 370.092 306.156 369.942 304.648Z" fill="#E59B43"/>
<path d="M93.6614 221.685H116.948V196.76H148.569V221.685H171.856V255.532H148.569V280.458H116.948V255.532H93.6614V221.685Z" fill="#C1EAFE"/>
<path d="M383.04 374.271L335.711 418.858C336.508 420.145 337.386 421.373 338.338 422.533C339.281 423.684 340.296 424.764 341.376 425.767L388.722 381.162C387.939 379.899 387.079 378.692 386.147 377.551C385.185 376.38 384.147 375.284 383.04 374.271Z" fill="#E58332"/>
<path d="M386.138 377.551C385.18 376.381 384.144 375.285 383.04 374.271L342.475 412.464C343.571 414.556 344.869 416.521 346.346 418.325C346.767 418.84 347.205 419.336 347.659 419.814L388.679 381.162C387.911 379.897 387.062 378.691 386.138 377.551Z" fill="#E59B43"/>
<path d="M297.988 348.343L240.123 300.328C232.522 294.02 221.582 295.503 215.689 303.64L215.684 303.647C209.791 311.784 211.176 323.493 218.778 329.801L276.643 377.816C284.245 384.124 295.184 382.641 301.077 374.504L301.083 374.497C306.976 366.36 305.59 354.65 297.988 348.343Z" fill="#F5E17B"/>
<path d="M297.987 348.344L240.127 300.33C238.837 299.259 237.413 298.387 235.896 297.739C231.375 298.396 227.275 300.927 224.48 304.786C221.651 308.697 220.389 313.649 220.97 318.556C221.551 323.462 223.928 327.921 227.578 330.952L285.439 378.957C286.729 380.028 288.153 380.9 289.67 381.548C294.194 380.899 298.296 378.367 301.086 374.501C302.487 372.566 303.519 370.354 304.122 367.992C304.724 365.63 304.886 363.164 304.599 360.735C304.311 358.306 303.579 355.962 302.445 353.836C301.31 351.71 299.796 349.844 297.987 348.344Z" fill="#F5E79A"/>
<path d="M297.988 348.344L269.062 324.319L247.715 353.811L276.641 377.818C278.443 379.379 280.519 380.539 282.746 381.231C284.973 381.923 287.306 382.131 289.61 381.845C291.913 381.559 294.14 380.784 296.159 379.565C298.179 378.346 299.951 376.708 301.372 374.746C302.793 372.785 303.833 370.539 304.433 368.142C305.033 365.744 305.179 363.243 304.864 360.784C304.549 358.325 303.778 355.958 302.597 353.822C301.417 351.686 299.849 349.824 297.988 348.344Z" fill="#E75457"/>
<path d="M297.988 348.344L269.062 324.319L250.496 349.952L285.439 378.938C286.729 380.01 288.153 380.882 289.67 381.529C293.069 381.033 296.256 379.474 298.83 377.047C301.404 374.62 303.251 371.433 304.139 367.886C305.028 364.34 304.918 360.592 303.823 357.112C302.729 353.632 300.699 350.575 297.988 348.326V348.344Z" fill="#F06963"/>
</svg>
